<!--
  - Copyright 2014-2023 JetBrains s.r.o. Use of this source code is governed by the Apache 2.0 license.
  -->

<svg width="16" height="16" viewBox="0 0 16 16" fill="none" xmlns="http://www.w3.org/2000/svg">
<g id="annotationKotlin">
<g id="&#226;&#140;&#152;/modifier/kotlin">
<path id="&#226;&#140;&#152;/modifier/kotlin_2" d="M16 16H9V9H16L12.4 12.4L16 16Z" fill="#B99BF8"/>
</g>
<path id="Vector" fill-rule="evenodd" clip-rule="evenodd" d="M8 15C4.134 15 1 11.866 1 8C1 4.134 4.134 1 8 1C11.866 1 15 4.134 15 8H8V15Z" fill="#62B543" fill-opacity="0.6"/>
<path id="Vector_2" fill-rule="evenodd" clip-rule="evenodd" d="M8.00001 9.32546V9.99479C7.96296 9.99826 7.92599 10 7.88911 10C7.07966 10 6.00011 9.9211 6.00011 8.0001C6.00011 6.32043 7.45594 6.0001 8.00011 6.0001C8.15311 6.0001 9.74511 6.0551 9.82411 6.0791L9.75124 8H8.76699C8.7695 7.96484 8.77154 7.9292 8.77311 7.8931L8.84211 6.6991L8.80011 6.6891C8.68511 6.6621 8.59811 6.6481 8.50011 6.6371C8.40211 6.6271 8.30411 6.6221 8.20211 6.6221C7.97811 6.6221 7.78611 6.6681 7.62811 6.7611C7.47311 6.8511 7.34511 6.9741 7.24611 7.1241C7.15111 7.2721 7.08111 7.4411 7.03911 7.6261C6.99711 7.8091 6.97611 7.9961 6.97611 8.1841C6.97611 8.5861 7.04911 8.8721 7.19711 9.0581C7.34911 9.2481 7.55411 9.3451 7.80511 9.3451C7.87359 9.3451 7.93863 9.33855 8.00001 9.32546ZM11.9819 8H11.0207C11.0512 7.78917 11.0601 7.61595 11.0601 7.5471C11.0601 4.90741 8.70811 4.7451 8.31611 4.7451C7.77111 4.7451 4.94355 4.85089 4.94355 8.0006C4.94355 8.58402 4.94355 11.2461 7.88911 11.2461C7.91058 11.2461 7.94864 11.2438 8.00001 11.2394V11.9994C7.9664 11.9999 7.93243 12.0001 7.89811 12.0001C7.15577 12.0001 4.00211 12.0001 4.00211 8.0006C4.00211 4.0011 7.66743 4.0011 8.31611 4.0011C8.65106 4.0011 12.0001 4.08643 12.0001 7.5571C12.0001 7.71468 11.9938 7.86209 11.9819 8Z" fill="#231F20" fill-opacity="0.7"/>
</g>
</svg>
