<!--
  - Copyright 2014-2023 JetBrains s.r.o. Use of this source code is governed by the Apache 2.0 license.
  -->

<svg width="16" height="16" viewBox="0 0 16 16" fill="none" xmlns="http://www.w3.org/2000/svg">
<g id="classKotlin">
<g id="&#226;&#140;&#152;/modifier/kotlin">
<path id="&#226;&#140;&#152;/modifier/kotlin_2" d="M16 16H9V9H16L12.4 12.4L16 16Z" fill="#B99BF8"/>
</g>
<path id="Vector" fill-rule="evenodd" clip-rule="evenodd" d="M8 15C4.134 15 1 11.866 1 8C1 4.134 4.134 1 8 1C11.866 1 15 4.134 15 8H8V15Z" fill="#40B6E0" fill-opacity="0.6"/>
<path id="Vector_2" fill-rule="evenodd" clip-rule="evenodd" d="M8.00001 11.0004C6.36299 10.9992 5.00021 9.68165 5.00021 8.0004C5.00021 6.3584 6.34021 5.0004 8.09821 5.0004C9.28828 5.0004 9.82941 5.27018 10.5162 5.83673L9.90001 6.55426C9.54835 6.18475 8.94835 6 8.10001 6C6.97101 6 6.00001 6.7124 6.00001 8.0004C6.00001 9.23838 6.99405 9.97382 8.00001 9.99976V11.0004V11.0004Z" fill="#231F20" fill-opacity="0.7"/>
</g>
</svg>
