<!-- Copyright 2000-2021 JetBrains s.r.o. Use of this source code is governed by the Apache 2.0 license that can be found in the LICENSE file. -->
<svg xmlns="http://www.w3.org/2000/svg" width="16" height="16" viewBox="0 0 16 16">
  <g fill="none" fill-rule="evenodd">
    <path fill="#62B543" fill-opacity=".6" d="M15,8 C15,11.866 11.866,15 8,15 C4.134,15 1,11.866 1,8 C1,4.134 4.134,1 8,1 C11.866,1 15,4.134 15,8"/>
    <path fill="#231F20" fill-opacity=".7" d="M3.6281,2.7611 C3.4731,2.8511 3.3451,2.9741 3.2461,3.1241 C3.1511,3.2721 3.0811,3.4411 3.0391,3.6261 C2.9971,3.8091 2.9761,3.9961 2.9761,4.1841 C2.9761,4.5861 3.0491,4.8721 3.1971,5.0581 C3.3491,5.2481 3.5541,5.3451 3.8051,5.3451 C3.9701,5.3451 4.1151,5.3071 4.2371,5.2311 C4.3571,5.1581 4.4571,5.0531 4.5331,4.9201 C4.6061,4.7931 4.6631,4.6401 4.7011,4.4641 C4.7391,4.2941 4.7641,4.1011 4.7731,3.8931 L4.8421,2.6991 L4.8001,2.6891 C4.6851,2.6621 4.5981,2.6481 4.5001,2.6371 C4.4021,2.6271 4.3041,2.6221 4.2021,2.6221 C3.9781,2.6221 3.7861,2.6681 3.6281,2.7611 Z M0.0021,4.0006 C0.0021,0.0011 3.66741943,0.0011 4.3161,0.0011 C4.65105644,0.0011 8.0001,0.0864290039 8.0001,3.5571 C8.0001,6.0091 6.4751,6 6.1701,6 C5.67331784,5.97 5.31431784,5.7737 5.0931,5.4111 C4.68260397,5.8037 4.28127064,6 3.8891,6 C3.0796519,6 2.0001,5.9211 2.0001,4.0001 C2.0001,2.32043457 3.45593262,2.0001 4.0001,2.0001 C4.1531,2.0001 5.7451,2.0551 5.8241,2.0791 L5.7441,4.1881 C5.6361,4.89276667 5.7991,5.2451 6.2331,5.2451 C6.95605469,5.2451 7.0601,3.7831 7.0601,3.5471 C7.0601,0.907409668 4.7081,0.7451 4.3161,0.7451 C3.7711,0.7451 0.94354248,0.850891113 0.94354248,4.0006 C0.94354248,4.58402311 0.94354248,7.2461 3.8891,7.2461 C4.0901,7.2461 5.7441,7.04302979 6.1621,6.8281 L6.1621,7.5781 C5.8551,7.7031 5.0931,8.0001 3.8981,8.0001 C3.15576172,8.0001 0.0021,8.0001 0.0021,4.0006 Z" transform="translate(4 4)"/>
  </g>
</svg>
