<!--
  - Copyright 2014-2024 JetBrains s.r.o. Use of this source code is governed by the Apache 2.0 license.
  -->

<svg width="16" height="16" viewBox="0 0 16 16" fill="none" xmlns="http://www.w3.org/2000/svg">
<g id="abstractClassKotlin">
<path id="Fill 1" fill-rule="evenodd" clip-rule="evenodd" d="M3 3.1055C1.764 4.3685 1 6.0935 1 8.0005C1 9.9065 1.764 11.6315 3 12.8945V3.1055Z" fill="#9AA7B0" fill-opacity="0.8"/>
<path id="Combined Shape" fill-rule="evenodd" clip-rule="evenodd" d="M13 8V3.1055C14.2359 4.36739 14.9999 6.0932 15 8H13Z" fill="#9AA7B0" fill-opacity="0.8"/>
<g id="idea/community/platform/icons/src/nodes/class">
<mask id="mask0" style="mask-type:alpha" maskUnits="userSpaceOnUse" x="4" y="1" width="8" height="14">
<path id="Mask" d="M4 1H12V8H8V15H4V1Z" fill="white"/>
</mask>
<g mask="url(#mask0)">
<g id="class">
<path id="Fill 1_2" fill-rule="evenodd" clip-rule="evenodd" d="M15 8C15 11.866 11.866 15 8 15C4.134 15 1 11.866 1 8C1 4.134 4.134 1 8 1C11.866 1 15 4.134 15 8Z" fill="#40B6E0" fill-opacity="0.6"/>
<g id="&#226;&#140;&#152;/alphabet/nodes/c">
<path id="&#226;&#140;&#152;/alphabet/nodes/c_2" fill-rule="evenodd" clip-rule="evenodd" d="M10 9.28253C9.53001 9.74153 9.02801 9.978 8.10001 10C7.06101 10.022 6.00001 9.2794 6.00001 8.0004C6.00001 6.7124 6.97101 6 8.10001 6C9.37251 6 9.90001 6.55426 9.90001 6.55426L10.5162 5.83673C9.82941 5.27017 9.28828 5.0004 8.09821 5.0004C6.34021 5.0004 5.00021 6.3584 5.00021 8.0004C5.00021 9.6824 6.36421 11.0004 8.00221 11.0004C9.29286 11.0004 10.0232 10.5934 10.6162 9.9814L10 9.28253Z" fill="#231F20" fill-opacity="0.7"/>
</g>
</g>
</g>
</g>
<g id="&#226;&#140;&#152;/modifier/kotlin">
<path id="&#226;&#140;&#152;/modifier/kotlin_2" d="M16 16H9V9H16L12.4 12.4L16 16Z" fill="#B99BF8"/>
</g>
</g>
</svg>
