<!--
  - Copyright 2014-2023 JetBrains s.r.o. Use of this source code is governed by the Apache 2.0 license.
  -->

<svg width="24" height="24" viewBox="0 0 24 24" fill="none" xmlns="http://www.w3.org/2000/svg">
    <path d="M21.2496 5.3C20.3496 4.5 19.2496 4 18.0496 4C16.8496 4 15.6496 4.5 14.8496 5.3L10.3496 9.8L11.7496 11.2L16.2496 6.7C17.2496 5.7 18.8496 5.7 19.8496 6.7C20.8496 7.7 20.8496 9.3 19.8496 10.3L15.3496 14.8L16.7496 16.2L21.2496 11.7C22.1496 10.8 22.5496 9.7 22.5496 8.5C22.5496 7.3 22.1496 6.2 21.2496 5.3Z" fill="#637282"/>
    <path d="M8.35 16.7998C7.35 17.7998 5.75 17.7998 4.75 16.7998C3.75 15.7998 3.75 14.1998 4.75 13.1998L9.25 8.6998L7.85 7.2998L3.35 11.7998C1.55 13.5998 1.55 16.3998 3.35 18.1998C4.25 19.0998 5.35 19.4998 6.55 19.4998C7.75 19.4998 8.85 19.0998 9.75 18.1998L14.25 13.6998L12.85 12.2998L8.35 16.7998Z" fill="#637282"/>
</svg>
