<!--
  - Copyright 2014-2024 JetBrains s.r.o. Use of this source code is governed by the Apache 2.0 license.
  -->

<svg width="16" height="16" viewBox="0 0 16 16" fill="none" xmlns="http://www.w3.org/2000/svg">
<g id="objectKotlin">
<path id="Vector" fill-rule="evenodd" clip-rule="evenodd" d="M8 15C4.134 15 1 11.866 1 8C1 4.134 4.134 1 8 1C11.866 1 15 4.134 15 8H8V15Z" fill="#F4AF3D" fill-opacity="0.6"/>
<path id="Vector_2" fill-rule="evenodd" clip-rule="evenodd" d="M11 8H9.94262C9.94262 6.87293 9.13115 5.94475 7.9918 5.94475C6.85246 5.94475 6.05738 6.85635 6.05738 7.98343V8C6.05738 9.12437 6.86496 10.0508 8 10.0552V11C7.99727 11 7.99454 11 7.9918 11C6.22951 11 5 9.64917 5 8.01657V8C5 6.3674 6.2459 5 8.0082 5C9.77049 5 11 6.35083 11 7.98343V8Z" fill="#231F20" fill-opacity="0.7"/>
<g id="&#226;&#140;&#152;/modifier/kotlin">
<path id="&#226;&#140;&#152;/modifier/kotlin_2" d="M16 16H9V9H16L12.4 12.4L16 16Z" fill="#B99BF8"/>
</g>
</g>
</svg>
