<svg xmlns="http://www.w3.org/2000/svg" width="24" height="24" viewBox="0 0 24 24" fill="none">
    <path d="M12 21C13.78 21 15.5201 20.4722 17.0001 19.4832C18.4802 18.4943 19.6337 17.0887 20.3149 15.4442C20.9961 13.7996 21.1743 11.99 20.8271 10.2442C20.4798 8.49836 19.6226 6.89472 18.364 5.63604C17.1053 4.37737 15.5016 3.5202 13.7558 3.17294C12.01 2.82567 10.2004 3.0039 8.55585 3.68509C6.91131 4.36628 5.50571 5.51983 4.51677 6.99987C3.52784 8.47991 3 10.22 3 12C3 14.387 3.94821 16.6761 5.63604 18.364C7.32387 20.0518 9.61305 21 12 21ZM8.09729 10.7262L10.5716 13.2004L15.8743 7.89777L17.2884 9.31202L10.5691 16.0314L9.1549 14.6171L9.15734 14.6147L6.6831 12.1404L8.09729 10.7262Z" fill="#4DBB5F"/>
</svg>