<!--
  - Copyright 2014-2023 JetBrains s.r.o. Use of this source code is governed by the Apache 2.0 license.
  -->

<svg width="40" height="40" viewBox="0 0 40 40" fill="none" xmlns="http://www.w3.org/2000/svg">
    <path d="M19.9824 29.0078C21.7625 29.0078 23.5025 28.48 24.9826 27.491C26.4626 26.5021 27.6161 25.0965 28.2973 23.452C28.9785 21.8074 29.1568 19.9978 28.8095 18.252C28.4622 16.5062 27.6051 14.9025 26.3464 13.6439C25.0877 12.3852 23.4841 11.528 21.7382 11.1807C19.9924 10.8335 18.1828 11.0117 16.5383 11.6929C14.8937 12.3741 13.4881 13.5276 12.4992 15.0077C11.5103 16.4877 10.9824 18.2278 10.9824 20.0078C10.9851 22.3939 11.9342 24.6816 13.6214 26.3688C15.3087 28.0561 17.5963 29.0051 19.9824 29.0078ZM19.9824 13.0078C21.8389 13.0078 23.6194 13.7453 24.9322 15.0581C26.2449 16.3708 26.9824 18.1513 26.9824 20.0078C26.9824 21.8643 26.2449 23.6448 24.9322 24.9576C23.6194 26.2703 21.8389 27.0078 19.9824 27.0078V13.0078Z" fill="white"/>
</svg>
