<svg width="24" height="24" viewBox="0 0 24 24" fill="none" xmlns="http://www.w3.org/2000/svg">
<path d="M11.9824 21.0078C13.7625 21.0078 15.5025 20.48 16.9826 19.491C18.4626 18.5021 19.6161 17.0965 20.2973 15.452C20.9785 13.8074 21.1568 11.9978 20.8095 10.252C20.4622 8.50617 19.6051 6.90253 18.3464 5.64386C17.0877 4.38518 15.4841 3.52802 13.7382 3.18075C11.9924 2.83348 10.1828 3.01171 8.53827 3.6929C6.89374 4.37409 5.48813 5.52764 4.4992 7.00768C3.51026 8.48773 2.98242 10.2278 2.98242 12.0078C2.98511 14.3939 3.93418 16.6816 5.62143 18.3688C7.30867 20.0561 9.5963 21.0051 11.9824 21.0078ZM11.9824 5.00782C13.8389 5.00782 15.6194 5.74531 16.9322 7.05807C18.2449 8.37082 18.9824 10.1513 18.9824 12.0078C18.9824 13.8643 18.2449 15.6448 16.9322 16.9576C15.6194 18.2703 13.8389 19.0078 11.9824 19.0078V5.00782Z" fill="rgba(255, 255, 255, 0.96)"/>
</svg>
